<svg width="448" height="448" viewBox="0 0 448 448" fill="none" xmlns="http://www.w3.org/2000/svg">
<path d="M400 0H48C21.5 0 0 21.5 0 48V400C0 426.5 21.5 448 48 448H400C426.5 448 448 426.5 448 400V48C448 21.5 426.5 0 400 0ZM277.3 383.7C268.9 385.2 265.8 380 265.8 375.7C265.8 370.3 266 342.7 266 320.4C266 304.8 260.8 294.9 254.7 289.7C291.7 285.6 330.7 280.5 330.7 216.6C330.7 198.4 324.2 189.3 313.6 177.6C315.3 173.3 321 155.6 311.9 132.6C298 128.3 266.2 150.5 266.2 150.5C253 146.8 238.7 144.9 224.6 144.9C210.5 144.9 196.2 146.8 183 150.5C183 150.5 151.2 128.3 137.3 132.6C128.2 155.5 133.8 173.2 135.6 177.6C125 189.3 120 198.4 120 216.6C120 280.2 157.3 285.6 194.3 289.7C189.5 294 185.2 301.4 183.7 312C174.2 316.3 149.9 323.7 135.4 298.1C126.3 282.3 109.9 281 109.9 281C93.7 280.8 108.8 291.2 108.8 291.2C119.6 296.2 127.2 315.4 127.2 315.4C136.9 345.1 183.3 335.1 183.3 335.1C183.3 349 183.5 371.6 183.5 375.7C183.5 380 180.5 385.2 172 383.7C106 361.6 59.8 298.8 59.8 225.4C59.8 133.6 130 63.9 221.8 63.9C313.6 63.9 388 133.6 388 225.4C388.1 298.8 343.3 361.7 277.3 383.7ZM179.2 322.6C177.3 323 175.5 322.2 175.3 320.9C175.1 319.4 176.4 318.1 178.3 317.7C180.2 317.5 182 318.3 182.2 319.6C182.5 320.9 181.2 322.2 179.2 322.6ZM169.7 321.7C169.7 323 168.2 324.1 166.2 324.1C164 324.3 162.5 323.2 162.5 321.7C162.5 320.4 164 319.3 166 319.3C167.9 319.1 169.7 320.2 169.7 321.7ZM156 320.6C155.6 321.9 153.6 322.5 151.9 321.9C150 321.5 148.7 320 149.1 318.7C149.5 317.4 151.5 316.8 153.2 317.2C155.2 317.8 156.5 319.3 156 320.6ZM143.7 315.2C142.8 316.3 140.9 316.1 139.4 314.6C137.9 313.3 137.5 311.4 138.5 310.5C139.4 309.4 141.3 309.6 142.8 311.1C144.1 312.4 144.6 314.4 143.7 315.2ZM134.6 306.1C133.7 306.7 132 306.1 130.9 304.6C129.8 303.1 129.8 301.4 130.9 300.7C132 299.8 133.7 300.5 134.6 302C135.7 303.5 135.7 305.3 134.6 306.1V306.1ZM128.1 296.4C127.2 297.3 125.7 296.8 124.6 295.8C123.5 294.5 123.3 293 124.2 292.3C125.1 291.4 126.6 291.9 127.7 292.9C128.8 294.2 129 295.7 128.1 296.4ZM121.4 289C121 289.9 119.7 290.1 118.6 289.4C117.3 288.8 116.7 287.7 117.1 286.8C117.5 286.2 118.6 285.9 119.9 286.4C121.2 287.1 121.8 288.2 121.4 289Z" fill="url(#paint0_linear)"/>
<defs>
<linearGradient id="paint0_linear" x1="224" y1="0" x2="224" y2="448" gradientUnits="userSpaceOnUse">
<stop stop-color="#050607"/>
<stop offset="0.619792" stop-color="#4C08F6"/>
</linearGradient>
</defs>
</svg>