<svg width="496" height="496" viewBox="0 0 496 496" fill="none" xmlns="http://www.w3.org/2000/svg">
<path d="M248 0C110.941 0 0 110.919 0 248C0 385.059 110.919 496 248 496C296.154 496 343.342 481.86 383.408 455.777C395.413 447.962 398.033 431.489 388.96 420.405L378.783 407.972C371.112 398.601 357.604 396.305 347.41 402.843C317.92 421.757 283.314 432 248 432C146.542 432 64 349.458 64 248C64 146.542 146.542 64 248 64C348.139 64 432 121.619 432 224C432 262.786 410.907 303.742 373.83 307.693C356.481 307.239 356.92 294.836 360.354 277.669L383.787 156.559C386.653 141.75 375.308 128 360.225 128H315.244C311.923 128 308.718 129.222 306.24 131.434C303.763 133.646 302.187 136.693 301.812 139.993L301.802 140.085C287.105 122.184 261.354 118.31 241.831 118.31C167.251 118.31 104 180.544 104 269.77C104 335.073 140.785 375.64 200 375.64C226.984 375.64 257.369 360.003 274.991 337.307C284.513 371.411 315.604 371.41 345.701 371.41C454.609 371.41 496 299.798 496 224C496 87.653 386.023 0 248 0ZM226.32 304.43C204.071 304.43 190.25 288.807 190.25 263.659C190.25 218.666 221.029 190.93 248.88 190.93C271.172 190.93 284.481 206.171 284.481 231.7C284.481 276.761 250.606 304.43 226.32 304.43Z" fill="url(#paint0_linear)"/>
<defs>
<linearGradient id="paint0_linear" x1="248" y1="0" x2="248" y2="496" gradientUnits="userSpaceOnUse">
<stop stop-color="#050607"/>
<stop offset="0.619792" stop-color="#4C08F6"/>
</linearGradient>
</defs>
</svg>